<svg xmlns="http://www.w3.org/2000/svg" viewBox="0 0 1600 900" preserveAspectRatio="xMidYMid slice"><defs><linearGradient id="sky" x2="0" y2="1"><stop stop-color="#08101a"/><stop offset=".5" stop-color="#111823"/><stop offset="1" stop-color="#090b0e"/></linearGradient><radialGradient id="moon"><stop stop-color="#d8d3bc" stop-opacity=".28"/><stop offset="1" stop-color="#768097" stop-opacity="0"/></radialGradient><filter id="grain"><feTurbulence baseFrequency=".75" numOctaves="4" seed="8"/><feBlend in="SourceGraphic" mode="soft-light"/></filter></defs><rect width="1600" height="900" fill="url(#sky)"/><circle cx="800" cy="210" r="260" fill="url(#moon)"/><path d="M0 260 210 150l210 110v55H0Zm1180 0 210-110 210 110v55h-420Z" fill="#08090b"/><path d="M0 342h1600v558H0z" fill="#111414"/><path d="M0 420 800 300l800 120v480H0Z" fill="#17191a"/><g stroke="#343638" stroke-width="3" opacity=".55"><path d="M0 520h1600M0 650h1600M0 790h1600"/><path d="m210 420-80 480m330-480-45 480m330-480-12 480m310-480 25 480m300-480 68 480"/></g><g fill="#6f221d" opacity=".65"><path d="m95 590 24-9-8 22 17 16-24-2-13 20-5-24-23-7 21-12Z"/><path d="m1450 510 20-14-3 24 21 12-24 5-6 24-12-21-24 3 17-18Z"/><path d="m1220 740 18-18 4 25 24 7-22 12 1 25-18-17-24 9 11-23-15-20Z"/></g><rect width="1600" height="900" fill="#101112" opacity=".18" filter="url(#grain)"/></svg>