<svg xmlns="http://www.w3.org/2000/svg" viewBox="0 0 120 120"><defs><radialGradient id="g"><stop stop-color="#c55a3e" stop-opacity=".8"/><stop offset="1" stop-color="#090b0f"/></radialGradient><filter id="n"><feTurbulence baseFrequency=".8" numOctaves="3" seed="3" result="noise"/><feBlend in="SourceGraphic" in2="noise" mode="soft-light"/></filter></defs><rect width="120" height="120" rx="8" fill="url(#g)"/><circle cx="60" cy="58" r="47" fill="none" stroke="#d8b76c" stroke-opacity=".24"/><path d="M31 76c-6-23 1-39 20-48l-7-17 18 11 17-11-3 22c16 12 20 28 11 46-13 14-43 15-56-3Zm50-39c19 4 25 15 20 32-4 12 1 19 12 22-19 3-29-7-26-23 3-15 0-24-6-31Z" fill="#19191b" stroke="#d8b76c" stroke-width="2" filter="url(#n)"/><text x="60" y="111" text-anchor="middle" fill="#efe5cb" font-size="11" font-family="serif">猫又</text></svg>