<svg xmlns="http://www.w3.org/2000/svg" viewBox="0 0 120 120"><defs><radialGradient id="g"><stop stop-color="#c55a3e" stop-opacity=".8"/><stop offset="1" stop-color="#090b0f"/></radialGradient><filter id="n"><feTurbulence baseFrequency=".8" numOctaves="3" seed="7" result="noise"/><feBlend in="SourceGraphic" in2="noise" mode="soft-light"/></filter></defs><rect width="120" height="120" rx="8" fill="url(#g)"/><circle cx="60" cy="58" r="47" fill="none" stroke="#d8b76c" stroke-opacity=".24"/><path d="M29 82c12 9 27 8 36 1 10-8 8-20-5-24-11-4-17-13-14-24 4-13 19-21 37-17 16 3 26 13 28 27-13-9-26-10-36-3-8 6-8 13 1 17 26 11 31 35 13 51-19 18-55 20-75 2Z" fill="#19191b" stroke="#d8b76c" stroke-width="2" filter="url(#n)"/><text x="60" y="111" text-anchor="middle" fill="#efe5cb" font-size="11" font-family="serif">白蛇ノ神</text></svg>